# xmcd
# Copyright (C) 1995-1998 Ti Kan
#
# Track frame offsets:
#       150
#       6629
#       28985
#       47087
#       71257
#       98901
#       125261
#       143922
#       165665
#       185946
#       209759
#       226986
#
# Disc length: 3557 seconds
#
# Revision: 0
# Processed by: cddbd v1.5.2PL0 Copyright (c) Steve Scherf et al.
# Submitted via: CD-Transfer v1.0
#
DISCID=b30de30c
DTITLE=Ndegeocello, Me'shell - Me'shell Ndegeocello
DYEAR=96
DGENRE=
TTITLE0=Wong, The
TTITLE1=Way, The
TTITLE2=Deuteronomy: Niggerman
TTITLE3=Ecclesiastes: Free My Heart
TTITLE4=Leviticus: Faggot
TTITLE5=Mary Magdalene
TTITLE6=God Shiva
TTITLE7=Who Is He And What Is He To You?
TTITLE8=Stay
TTITLE9=Bittersweet
TTITLE10=A Tear And A Smile
TTITLE11=Make Me Wanna Holler
EXTD=
EXTT0=
EXTT1=
EXTT2=
EXTT3=
EXTT4=
EXTT5=
EXTT6=
EXTT7=
EXTT8=
EXTT9=
EXTT10=
EXTT11=
PLAYORDER=
